<svg xmlns="http://www.w3.org/2000/svg" width="33.016" height="33.016" viewBox="0 0 33.016 33.016"><defs><style>.a{fill:#2bcbba;}</style></defs><path class="a" d="M48.234,23.77l-12.381-3.1c-.014,0-.03,0-.045-.006a.894.894,0,0,0-.139-.018c-.026,0-.051,0-.077,0a1.069,1.069,0,0,0-.157.015c-.02,0-.039,0-.058.009a.985.985,0,0,0-.2.066l-.011,0a1.034,1.034,0,0,0-.184.11l-4.54,3.4V20.941a2.579,2.579,0,1,0-2.063,0V46.953H17.032a1.032,1.032,0,1,0,0,2.063H41.794a1.032,1.032,0,0,0,0-2.063H30.444V28.382l4.54,3.4a.964.964,0,0,0,.178.093,1.06,1.06,0,0,0,.112.059,1.022,1.022,0,0,0,.328.055h.01a1.058,1.058,0,0,0,.231-.029h.009l12.381-3.1a1.031,1.031,0,0,0,.782-1v-3.1A1.031,1.031,0,0,0,48.234,23.77ZM34.571,28.9l-3.439-2.579,3.439-2.579ZM29.413,18.064a.516.516,0,1,1-.516.516A.516.516,0,0,1,29.413,18.064ZM36.635,23l4.127,1.032v4.579L36.635,29.64ZM46.952,27.06l-4.127,1.032V24.544l4.127,1.032Z" transform="translate(-16 -16.001)"/></svg>