<svg xmlns="http://www.w3.org/2000/svg" width="40" height="40" viewBox="0 0 40 40"><defs><style>.a{fill:#fff;}</style></defs><path class="a" d="M52.878,32.66a1.531,1.531,0,0,0,1.088-.451l2.176-2.176a1.538,1.538,0,1,0-2.175-2.175l-2.176,2.176a1.538,1.538,0,0,0,1.088,2.626ZM28.154,42a1.539,1.539,0,0,0-1.538-1.538H23.538a1.538,1.538,0,0,0,0,3.077h3.077A1.539,1.539,0,0,0,28.154,42Zm1.88,9.791-2.176,2.176a1.538,1.538,0,1,0,2.175,2.175l2.176-2.176a1.538,1.538,0,0,0-2.175-2.175Zm0-19.582a1.538,1.538,0,0,0,2.175-2.175l-2.176-2.176a1.538,1.538,0,0,0-2.175,2.175ZM42,28.154a1.539,1.539,0,0,0,1.538-1.538V23.538a1.538,1.538,0,0,0-3.077,0v3.077A1.539,1.539,0,0,0,42,28.154ZM60.462,40.462H57.385a1.538,1.538,0,1,0,0,3.077h3.077a1.538,1.538,0,1,0,0-3.077Zm-6.5,11.329a1.538,1.538,0,0,0-2.175,2.175l2.176,2.176a1.538,1.538,0,0,0,2.175-2.175ZM42,55.846a1.539,1.539,0,0,0-1.538,1.538v3.077a1.538,1.538,0,1,0,3.077,0V57.385A1.539,1.539,0,0,0,42,55.846Zm0-24.615A10.769,10.769,0,1,0,52.769,42,10.781,10.781,0,0,0,42,31.231Zm0,18.462A7.692,7.692,0,1,1,49.692,42,7.7,7.7,0,0,1,42,49.692Z" transform="translate(-22 -22)"/></svg>