<svg xmlns="http://www.w3.org/2000/svg" width="12.269" height="29" viewBox="0 0 12.269 29"><defs><style>.a{fill:#fff;}</style></defs><g transform="translate(-37 -22)"><path class="a" d="M45.548,58A2.548,2.548,0,1,0,48.1,60.548,2.551,2.551,0,0,0,45.548,58Zm0,3.058a.51.51,0,1,1,.51-.51A.51.51,0,0,1,45.548,61.058Z" transform="translate(-2.413 -15.154)"/><path class="a" d="M47.6,40.66l-.005-14.2a4.462,4.462,0,0,0-8.923,0l-.006,14.2a6.135,6.135,0,1,0,8.934,0Zm-4.467,8.109a3.9,3.9,0,0,1-2.606-6.811,1.116,1.116,0,0,0,.37-.829L40.9,26.462a2.231,2.231,0,1,1,4.462,0l.005,14.667a1.113,1.113,0,0,0,.37.829,3.9,3.9,0,0,1-2.606,6.811Z"/></g></svg>