<svg xmlns="http://www.w3.org/2000/svg" width="37.77" height="22.132" viewBox="0 0 37.77 22.132"><defs><style>.a{fill:#2bcbba;}.b{fill:none;stroke:#2bcbba;stroke-linejoin:round;stroke-width:3px;}</style></defs><g transform="translate(-219.982 -533.16)"><path class="a" d="M15.5,10.071h2.414L8.223,27.985H5.833Zm-14.242,4.4a5.033,5.033,0,0,1,.509-2.219,3.569,3.569,0,0,1,1.556-1.619A5.131,5.131,0,0,1,5.8,10.071a4.507,4.507,0,0,1,3.317,1.2,4.306,4.306,0,0,1,1.213,3.2A4.321,4.321,0,0,1,9.116,17.69a4.507,4.507,0,0,1-3.317,1.2,5.131,5.131,0,0,1-2.477-.566,3.569,3.569,0,0,1-1.556-1.619A5.058,5.058,0,0,1,1.257,14.475Zm3.214.023a3.607,3.607,0,0,0,.458,2.059,1,1,0,0,0,.869.423.966.966,0,0,0,.858-.423A3.607,3.607,0,0,0,7.114,14.5a3.641,3.641,0,0,0-.458-2.059.975.975,0,0,0-.858-.412,1,1,0,0,0-.869.412A3.607,3.607,0,0,0,4.471,14.5Zm8.877,9.048a5.069,5.069,0,0,1,.5-2.225A3.567,3.567,0,0,1,15.407,19.7a5.1,5.1,0,0,1,2.471-.572,4.511,4.511,0,0,1,3.329,1.207,4.326,4.326,0,0,1,1.213,3.209,4.326,4.326,0,0,1-1.213,3.209,4.511,4.511,0,0,1-3.329,1.207,5.1,5.1,0,0,1-2.471-.572,3.567,3.567,0,0,1-1.556-1.619A5.069,5.069,0,0,1,13.348,23.547Zm3.214.023a3.607,3.607,0,0,0,.458,2.059.975.975,0,0,0,.858.412,1,1,0,0,0,.869-.412,3.607,3.607,0,0,0,.458-2.059,3.666,3.666,0,0,0-.458-2.071,1,1,0,0,0-.869-.412.966.966,0,0,0-.858.423A3.607,3.607,0,0,0,16.563,23.57Z" transform="translate(235.332 525.807)"/><path class="b" d="M292.653,533.5s-13.867,19.132,0,19.132S292.653,533.5,292.653,533.5Z" transform="translate(-65.009 1.16)"/></g></svg>