<svg xmlns="http://www.w3.org/2000/svg" width="33.96" height="26.122" viewBox="0 0 33.96 26.122"><defs><style>.a{fill:#2bcbba;}</style></defs><g transform="translate(-21.999 -28)"><path class="a" d="M42.9,46H23.305a1.306,1.306,0,1,0,0,2.612H42.9a4.571,4.571,0,0,1,0,9.143,1.306,1.306,0,1,0,0,2.612A7.184,7.184,0,0,0,42.9,46Z" transform="translate(0 -6.245)"/><path class="a" d="M38.979,52H23.306a1.306,1.306,0,0,0,0,2.612H38.979a.653.653,0,1,1,0,1.306,1.306,1.306,0,0,0,0,2.612,3.265,3.265,0,0,0,0-6.531Z" transform="translate(0 -8.327)"/><path class="a" d="M66.918,38a1.306,1.306,0,0,0,0,2.612.653.653,0,1,1,0,1.306H64.306a1.306,1.306,0,0,0,0,2.612h2.612a3.265,3.265,0,0,0,0-6.531Z" transform="translate(-14.225 -3.469)"/><path class="a" d="M23.305,38.448H44.857a5.224,5.224,0,1,0-5.224-5.224,1.306,1.306,0,0,0,2.612,0,2.612,2.612,0,1,1,2.612,2.612H23.305a1.306,1.306,0,1,0,0,2.612Z" transform="translate(0 0)"/></g></svg>